# xmcd CD database file
#
# Track frame offsets:
#	150
#	19935
#	43370
#	64713
#	87745
#	114222
#	137777
#	159983
#	195187
#	214840
#	233497
#	254091
#	273093
#
# Disc length: 3834 seconds
#
# Revision: 0
# Processed by: cddbd v1.5.2PL0 Copyright (c) Steve Scherf et al.
# Submitted via: CDex 1.51
#
DISCID=b30ef80d
DTITLE=Wednesday - Torch Rock
DYEAR=2007
DGENRE=Jazz
TTITLE0=Arizona Man
TTITLE1=After You
TTITLE2=The Rise and Fall of Love
TTITLE3=Heartbreak Saloon
TTITLE4=Only Women Bleed
TTITLE5=Decorations
TTITLE6=Seventh Level
TTITLE7=Bulldog Blues
TTITLE8=Skye
TTITLE9=Predatory Gentlemen
TTITLE10=My Fantasy Life
TTITLE11=The End of the Highway
TTITLE12=Pirate Love
EXTD=YEAR: 2007
EXTT0=
EXTT1=
EXTT2=
EXTT3=
EXTT4=
EXTT5=
EXTT6=
EXTT7=
EXTT8=
EXTT9=
EXTT10=
EXTT11=
EXTT12=
PLAYORDER=
